<svg width="52" height="50" viewBox="0 0 52 50" fill="none" xmlns="http://www.w3.org/2000/svg">
<path d="M37.313 0.400001C37.313 0.179087 37.4921 0 37.713 0H51.6C51.8209 0 52 0.179086 52 0.4V49.6C52 49.8209 51.8209 50 51.6 50H37.713C37.4921 50 37.313 49.8209 37.313 49.6V0.400001Z" fill="#3864FF"/>
<path d="M0 26.4C0 26.1791 0.179086 26 0.4 26H14.287C14.5079 26 14.687 26.1791 14.687 26.4V49.6C14.687 49.8209 14.5079 50 14.287 50H0.4C0.179086 50 0 49.8209 0 49.6V26.4Z" fill="#CDD8FF"/>
<path d="M18.6565 10.4C18.6565 10.1791 18.8356 10 19.0565 10H32.9435C33.1644 10 33.3435 10.1791 33.3435 10.4V49.6C33.3435 49.8209 33.1644 50 32.9435 50H19.0565C18.8356 50 18.6565 49.8209 18.6565 49.6V10.4Z" fill="#9BB1FF"/>
</svg>
