<svg width="458" height="155" viewBox="0 0 458 155" fill="none" xmlns="http://www.w3.org/2000/svg">
<path d="M182.95 125V62.85H159V53H217.35V62.85H193.4V125H182.95ZM216.852 125V71H226.152V84.1L224.852 82.4C225.518 80.6667 226.385 79.0833 227.452 77.65C228.518 76.1833 229.752 74.9833 231.152 74.05C232.518 73.05 234.035 72.2833 235.702 71.75C237.402 71.1833 239.135 70.85 240.902 70.75C242.668 70.6167 244.368 70.7 246.002 71V80.8C244.235 80.3333 242.268 80.2 240.102 80.4C237.968 80.6 236.002 81.2833 234.202 82.45C232.502 83.55 231.152 84.8833 230.152 86.45C229.185 88.0167 228.485 89.7667 228.052 91.7C227.618 93.6 227.402 95.6167 227.402 97.75V125H216.852ZM266.773 126.5C262.773 126.5 259.423 125.767 256.723 124.3C254.023 122.8 251.973 120.833 250.573 118.4C249.207 115.933 248.523 113.233 248.523 110.3C248.523 107.567 249.007 105.167 249.973 103.1C250.94 101.033 252.373 99.2833 254.273 97.85C256.173 96.3833 258.507 95.2 261.273 94.3C263.673 93.6 266.39 92.9833 269.423 92.45C272.457 91.9167 275.64 91.4167 278.973 90.95C282.34 90.4833 285.673 90.0167 288.973 89.55L285.173 91.65C285.24 87.4167 284.34 84.2833 282.473 82.25C280.64 80.1833 277.473 79.15 272.973 79.15C270.14 79.15 267.54 79.8167 265.173 81.15C262.807 82.45 261.157 84.6167 260.223 87.65L250.473 84.65C251.807 80.0167 254.34 76.3333 258.073 73.6C261.84 70.8667 266.84 69.5 273.073 69.5C277.907 69.5 282.107 70.3333 285.673 72C289.273 73.6333 291.907 76.2333 293.573 79.8C294.44 81.5667 294.973 83.4333 295.173 85.4C295.373 87.3667 295.473 89.4833 295.473 91.75V125H286.223V112.65L288.023 114.25C285.79 118.383 282.94 121.467 279.473 123.5C276.04 125.5 271.807 126.5 266.773 126.5ZM268.623 117.95C271.59 117.95 274.14 117.433 276.273 116.4C278.407 115.333 280.123 113.983 281.423 112.35C282.723 110.717 283.573 109.017 283.973 107.25C284.54 105.65 284.857 103.85 284.923 101.85C285.023 99.85 285.073 98.25 285.073 97.05L288.473 98.3C285.173 98.8 282.173 99.25 279.473 99.65C276.773 100.05 274.323 100.45 272.123 100.85C269.957 101.217 268.023 101.667 266.323 102.2C264.89 102.7 263.607 103.3 262.473 104C261.373 104.7 260.49 105.55 259.823 106.55C259.19 107.55 258.873 108.767 258.873 110.2C258.873 111.6 259.223 112.9 259.923 114.1C260.623 115.267 261.69 116.2 263.123 116.9C264.557 117.6 266.39 117.95 268.623 117.95ZM326.557 126.5C321.024 126.5 316.324 125.267 312.457 122.8C308.59 120.333 305.624 116.95 303.557 112.65C301.524 108.35 300.49 103.467 300.457 98C300.49 92.4333 301.557 87.5167 303.657 83.25C305.757 78.95 308.757 75.5833 312.657 73.15C316.557 70.7167 321.24 69.5 326.707 69.5C332.607 69.5 337.64 70.9667 341.807 73.9C346.007 76.8333 348.774 80.85 350.107 85.95L339.707 88.95C338.674 85.9167 336.974 83.5667 334.607 81.9C332.274 80.2 329.59 79.35 326.557 79.35C323.124 79.35 320.307 80.1667 318.107 81.8C315.907 83.4 314.274 85.6 313.207 88.4C312.14 91.2 311.59 94.4 311.557 98C311.59 103.567 312.857 108.067 315.357 111.5C317.89 114.933 321.624 116.65 326.557 116.65C329.924 116.65 332.64 115.883 334.707 114.35C336.807 112.783 338.407 110.55 339.507 107.65L350.107 110.15C348.34 115.417 345.424 119.467 341.357 122.3C337.29 125.1 332.357 126.5 326.557 126.5ZM356.243 125L356.293 53H366.893V97L388.093 71H401.393L378.993 98L403.693 125H389.493L366.893 99V125H356.243ZM417.034 149L427.484 120.55L427.634 128.95L404.084 71H414.984L432.584 115.75H429.384L446.184 71H456.784L426.984 149H417.034Z" fill="black"/>
<path d="M93.2825 1C93.2825 0.447717 93.7302 0 94.2825 0H129C129.552 0 130 0.447715 130 1V124C130 124.552 129.552 125 129 125H94.2825C93.7302 125 93.2825 124.552 93.2825 124V1Z" fill="#3864FF"/>
<path d="M0 66C0 65.4477 0.447715 65 1 65H35.7176C36.2698 65 36.7176 65.4477 36.7176 66V124C36.7176 124.552 36.2698 125 35.7176 125H1C0.447717 125 0 124.552 0 124V66Z" fill="#CDD8FF"/>
<path d="M46.6412 26C46.6412 25.4477 47.089 25 47.6412 25H82.3588C82.9111 25 83.3588 25.4477 83.3588 26V124C83.3588 124.552 82.9111 125 82.3588 125H47.6412C47.089 125 46.6412 124.552 46.6412 124V26Z" fill="#9BB1FF"/>
</svg>
